<svg version="1.0" xmlns="http://www.w3.org/2000/svg" xmlns:xlink="http://www.w3.org/1999/xlink" x="0px" y="0px" viewBox="0 0 72 72" style="height:100px; fill: #FFFFFF; enable-background:new 0 0 72 72;" xml:space="preserve" role="img">
	<path d="M66.5,0h-61C2.5,0,0,2.5,0,5.5v60.9c0,3,2.5,5.5,5.5,5.5h1c0.8,0,1.4-0.6,1.4-1.4c0-0.8-0.6-1.4-1.4-1.4h-1
		c-1.5,0-2.8-1.2-2.8-2.8V5.5C2.7,4,4,2.8,5.5,2.8h61c1.5,0,2.8,1.2,2.8,2.8v60.9c0,1.5-1.2,2.8-2.8,2.8H17.8
		c-0.8,0-1.4,0.6-1.4,1.4c0,0.8,0.6,1.4,1.4,1.4h48.7c3,0,5.5-2.5,5.5-5.5V5.5C72,2.5,69.5,0,66.5,0z"></path>
	<path d="M22.3,51.7v7.2c0,0.7,0.6,1.3,1.3,1.3s1.3-0.6,1.3-1.3v-7.2c0-0.7-0.6-1.3-1.3-1.3S22.3,50.9,22.3,51.7z"></path>
	<path d="M11.9,51.9c-0.7,0-1.3,0.6-1.3,1.3v5.6c0,0.7,0.6,1.3,1.3,1.3s1.3-0.6,1.3-1.3v-5.6C13.2,52.5,12.6,51.9,11.9,51.9z"></path>
	<path d="M59,29v29.8c0,0.7,0.6,1.3,1.3,1.3c0.7,0,1.3-0.6,1.3-1.3V29c0-0.7-0.6-1.3-1.3-1.3C59.5,27.8,59,28.3,59,29z"></path>
	<path d="M34.8,49.3v9.5c0,0.7,0.6,1.3,1.3,1.3c0.7,0,1.3-0.6,1.3-1.3v-9.5c0-0.7-0.6-1.3-1.3-1.3C35.4,48.1,34.8,48.6,34.8,49.3z"></path>
	<path d="M47.5,42.9v15.9c0,0.7,0.6,1.3,1.3,1.3c0.7,0,1.3-0.6,1.3-1.3V42.9c0-0.7-0.6-1.3-1.3-1.3C48.1,41.6,47.5,42.2,47.5,42.9z"></path>
	<path d="M22.5,47c15.8,0,30-9.2,36.5-23.4l4.3,1.4l-2.5-11.2l-8.5,7.8l4.2,1.3C50.4,36,37.2,44.4,22.5,44.4H10.7
		c-0.7,0-1.3,0.6-1.3,1.3c0,0.7,0.6,1.3,1.3,1.3H22.5z"></path>
</svg>